<?xml version="1.0" encoding="UTF-8"?>
<svg id="Mode_Isolation" data-name="Mode Isolation" xmlns="http://www.w3.org/2000/svg" viewBox="0 0 47.03 47.05">
    <defs>
        <style>
            .cls-1 {
            stroke: rgba(119, 119, 119, .5);
            stroke-miterlimit: 10;
            stroke-width: 2px;
            }
        </style>
    </defs>
    <path class="cls-1" d="m3.85,11.18c-.6-.6-1.6-.7-2.2-.1s-.9,1.5-.4,2.2l8,12.6c.4.6.8,1.1,1.3,1.6,3.5,3.5,9,3.7,12.7.6l17,17c1.3,1.3,3.5,1.3,4.8,0s1.3-3.5,0-4.8l-17-17c3.1-3.7,2.9-9.2-.6-12.7-.5-.5-1-.9-1.6-1.3L13.25,1.28c-.7-.5-1.7-.3-2.3.4-.6.7-.5,1.7.1,2.3l10.2,10.2c.4.4.4,1.1,0,1.5s-1,.4-1.4.1L8.65,6.18c-.7-.6-1.7-.5-2.3.1-.7.7-.7,1.7-.1,2.3l9.4,11.3c.3.4.3,1-.1,1.4s-1.1.4-1.5,0L3.85,11.18h0Zm9.9,13.1h0Z"/>
</svg>